<svg width="313" height="81" viewBox="0 0 81 81" fill="none" xmlns="http://www.w3.org/2000/svg">
<path d="M72.9455 18.4505C71.8169 9.95203 64.5038 3.24329 55.846 1.95268C54.3811 1.73352 48.8453 0.929932 36.0206 0.929932H35.9245C23.0879 0.929932 20.338 1.73352 18.873 1.95268C10.4433 3.21894 2.75813 9.23367 0.884866 17.8418C-0.00373551 22.0789 -0.0998005 26.7787 0.0683132 31.0888C0.308475 37.274 0.356508 43.4348 0.908881 49.5957C1.29314 53.6867 1.95359 57.7412 2.90223 61.7347C4.67943 69.1131 11.8603 75.2497 18.8971 77.7456C26.4261 80.3512 34.5317 80.7894 42.2888 78.9996C43.1414 78.7927 43.982 78.5614 44.8226 78.2935C46.7079 77.6847 48.9173 77.0029 50.5504 75.8097C50.5745 75.7975 50.5865 75.7732 50.5985 75.7488C50.6105 75.7245 50.6225 75.7001 50.6225 75.6635V69.6975C50.6225 69.6975 50.6225 69.6488 50.5985 69.6245C50.5985 69.6002 50.5745 69.5758 50.5504 69.5636C50.5264 69.5515 50.5024 69.5392 50.4785 69.5271C50.4543 69.5271 50.4304 69.5271 50.4064 69.5271C45.4349 70.7325 40.3316 71.3413 35.2281 71.3291C26.4261 71.3291 24.0605 67.0919 23.3881 65.3387C22.8477 63.8168 22.4995 62.2217 22.3554 60.6146C22.3554 60.5902 22.3554 60.5659 22.3674 60.5415C22.3674 60.5172 22.3914 60.4928 22.4155 60.4806C22.4394 60.4685 22.4634 60.4563 22.4874 60.4441H22.5715C27.4588 61.6373 32.4782 62.2461 37.5096 62.2461C38.7225 62.2461 39.9232 62.2461 41.1361 62.2096C46.1915 62.0634 51.5232 61.8077 56.5065 60.8216C56.6265 60.7972 56.7587 60.7729 56.8667 60.7485C64.7201 59.2144 72.1891 54.4172 72.9455 42.266C72.9697 41.7912 73.0417 37.2497 73.0417 36.7627C73.0417 35.0702 73.582 24.7941 72.9576 18.475L72.9455 18.4505Z" fill="url(#paint0_linear_539_135)"/>
<path d="M14.8143 23.1993C14.8143 20.7155 16.7717 18.7188 19.1973 18.7188C21.623 18.7188 23.5802 20.7277 23.5802 23.1993C23.5802 25.6709 21.623 27.6799 19.1973 27.6799C16.7717 27.6799 14.8143 25.6709 14.8143 23.1993Z" fill="white"/>
<defs>
<linearGradient id="paint0_linear_539_135" x1="36.621" y1="0.929932" x2="36.621" y2="80.0712" gradientUnits="userSpaceOnUse">
<stop stop-color="#6364FF"/>
<stop offset="1" stop-color="#563ACC"/>
</linearGradient>
</defs>
</svg>