<svg xmlns="http://www.w3.org/2000/svg" width="230.842" height="247.477" viewBox="0 0 216.414 232.01">
  <path d="M107.865 0c-29.661.242-58.193 3.454-74.82 11.09 0 0-32.977 14.752-32.977 65.082 0 11.525-.224 25.306.141 39.92 1.197 49.22 9.024 97.728 54.531 109.773 20.983 5.554 38.997 6.716 53.506 5.918 26.311-1.459 41.082-9.388 41.082-9.388l-.869-19.09s-18.802 5.927-39.918 5.205c-20.921-.718-43.007-2.255-46.39-27.942-.313-2.256-.47-4.669-.47-7.203 0 0 20.538 5.02 46.565 6.213 15.915.73 30.84-.933 45.998-2.742 29.07-3.471 54.381-21.382 57.563-37.748 5.012-25.781 4.6-62.916 4.6-62.916 0-50.33-32.975-65.082-32.975-65.082C166.805 3.454 138.255.242 108.594 0h-.729zM74.297 39.326c12.355 0 21.71 4.75 27.896 14.248l6.014 10.08 6.016-10.08c6.185-9.499 15.54-14.248 27.896-14.248 10.678 0 19.282 3.754 25.852 11.076 6.368 7.323 9.539 17.22 9.539 29.674v60.942h-24.145V81.869c0-12.469-5.244-18.799-15.738-18.799-11.603 0-17.418 7.509-17.418 22.354v32.375H96.207V85.424c0-14.845-5.815-22.354-17.418-22.354-10.494 0-15.74 6.33-15.74 18.8v59.148H38.904V80.076c0-12.455 3.171-22.351 9.541-29.674 6.57-7.322 15.173-11.076 25.852-11.076z" fill="#fff"/>
</svg>
